<svg xmlns="http://www.w3.org/2000/svg" width="15" height="15" viewBox="0 0 15 15">
    <path fill="#707488" fill-rule="nonzero" d="M12.929 1.891C11.549.631 9.832 0 7.782 0 5.628 0 3.791.716 2.275 2.151.76 3.586 0 5.371 0 7.506c0 2.047.722 3.807 2.164 5.282C3.612 14.263 5.557 15 8.004 15c1.476 0 2.924-.3 4.344-.903a.915.915 0 0 0 .5-1.184.926.926 0 0 0-1.222-.496c-1.235.527-2.445.79-3.624.79-1.877 0-3.331-.566-4.362-1.701-1.028-1.133-1.544-2.464-1.544-3.99 0-1.66.553-3.042 1.655-4.153C4.85 2.255 6.205 1.698 7.81 1.698c1.478 0 2.728.456 3.747 1.368 1.019.912 1.528 2.06 1.528 3.443 0 .945-.235 1.735-.7 2.362-.467.63-.952.942-1.455.942-.271 0-.407-.143-.407-.434 0-.236.018-.511.052-.83l.574-4.654H9.175l-.127.456c-.503-.407-1.056-.612-1.655-.612-.95 0-1.765.377-2.441 1.126-.68.75-1.016 1.717-1.016 2.898 0 1.154.3 2.087.901 2.794.602.71 1.325 1.062 2.17 1.062.757 0 1.402-.315 1.94-.943.404.603 1 .903 1.787.903 1.157 0 2.158-.499 3-1.5C14.577 9.083 15 7.877 15 6.467c0-1.787-.688-3.314-2.071-4.575zm-4.55 7.041c-.35.465-.766.7-1.251.7-.33 0-.596-.17-.796-.513-.204-.343-.306-.768-.306-1.28 0-.63.142-1.138.426-1.523.284-.386.636-.582 1.056-.582.364 0 .688.144.972.435.284.29.426.676.426 1.16a2.633 2.633 0 0 1-.528 1.603z"/>
</svg>
