<svg xmlns="http://www.w3.org/2000/svg" width="15" height="15" viewBox="0 0 15 15">
    <path fill="#99ABC3" fill-rule="nonzero" d="M14.667 11.857L12.35 9.54c-.462-.46-1.226-.446-1.703.032l-1.168 1.167a34.15 34.15 0 0 1-.23-.128c-.737-.409-1.746-.969-2.808-2.031-1.065-1.065-1.625-2.075-2.035-2.813l-.125-.225.783-.782.385-.386c.479-.478.492-1.242.031-1.703L3.163.353c-.46-.46-1.225-.446-1.703.032l-.653.657.018.018c-.22.28-.402.601-.538.949-.126.33-.204.646-.24.963-.306 2.536.853 4.854 3.999 8 4.348 4.347 7.852 4.019 8.003 4.003.33-.04.645-.118.966-.243.344-.134.666-.317.945-.535l.015.012.661-.648c.477-.478.491-1.242.03-1.704z"/>
</svg>
