<svg xmlns="http://www.w3.org/2000/svg" width="19" height="11" viewBox="0 0 19 11">
    <path fill="#99ABC3" fill-rule="nonzero" d="M9.176.027C5.67.027 2.49 1.946.144 5.062a.726.726 0 0 0 0 .867c2.346 3.12 5.526 5.038 9.032 5.038 3.507 0 6.687-1.918 9.033-5.034a.726.726 0 0 0 0-.868C15.863 1.945 12.683.027 9.176.027zm.252 9.322a3.862 3.862 0 0 1-4.104-4.103 3.869 3.869 0 0 1 3.6-3.6 3.862 3.862 0 0 1 4.104 4.103 3.88 3.88 0 0 1-3.6 3.6zm-.116-1.78a2.075 2.075 0 0 1-2.208-2.207 2.087 2.087 0 0 1 1.941-1.94 2.075 2.075 0 0 1 2.207 2.207 2.087 2.087 0 0 1-1.94 1.94z" opacity=".442"/>
</svg>
