<svg xmlns="http://www.w3.org/2000/svg" width="32" height="38" viewBox="0 0 32 38">
    <g fill="#FFF" fill-rule="evenodd">
        <path d="M6.007 16.23v-3.963c0-2.246 1.809-4.067 4.04-4.067 2.23 0 4.039 1.82 4.039 4.067v5.813c0 4.207 3.387 7.617 7.565 7.617 4.179 0 7.566-3.41 7.566-7.617V6.761A15.093 15.093 0 0 1 32 15.5C32 24.06 24.837 31 16 31c-3.78 0-7.255-1.27-9.993-3.394v-9.37h5.112a1 1 0 0 0 .997-1.003 1 1 0 0 0-.997-1.003H6.007zm-1.993 0H2.976a1 1 0 0 0-.997 1.003 1 1 0 0 0 .997 1.004h1.038v7.531C1.516 23.034 0 19.438 0 15.5 0 6.94 7.163 0 16 0c4.373 0 8.336 1.7 11.224 4.453V18.08c0 3.099-2.495 5.61-5.573 5.61-3.077 0-5.572-2.511-5.572-5.61v-5.813c0-3.354-2.7-6.073-6.032-6.073s-6.033 2.719-6.033 6.073v3.963zM5.262 38a.26.26 0 0 1-.183-.073.234.234 0 0 1-.079-.178v-3.804a2.379 2.379 0 0 1 .366-1.262c.128-.207.288-.369.48-.484.215-.133.445-.199.69-.199a.25.25 0 0 1 .262.26.24.24 0 0 1-.075.177.255.255 0 0 1-.188.073.716.716 0 0 0-.48.156 1.36 1.36 0 0 0-.287.328 1.649 1.649 0 0 0-.188.45 1.979 1.979 0 0 0-.065.501v.165h1.02c.076 0 .138.025.188.077a.255.255 0 0 1 0 .36.255.255 0 0 1-.188.073h-1.02v3.13a.24.24 0 0 1-.075.177.245.245 0 0 1-.178.073zm2.519-4.228a.245.245 0 0 1-.179-.073.24.24 0 0 1-.074-.177v-.095c0-.07.025-.13.074-.182a.238.238 0 0 1 .179-.078c.07 0 .13.026.183.078a.248.248 0 0 1 .078.182v.095c0 .069-.026.128-.078.177a.26.26 0 0 1-.183.073zm0 4.228a.25.25 0 0 1-.253-.26V34.37a.25.25 0 0 1 .253-.26c.07 0 .13.025.183.074a.244.244 0 0 1 .078.186v3.372a.244.244 0 0 1-.078.186.26.26 0 0 1-.183.073zm1.394 0a.26.26 0 0 1-.183-.073.234.234 0 0 1-.079-.178v-2.11c0-.207.04-.403.122-.587a1.564 1.564 0 0 1 .82-.813c.186-.08.384-.12.593-.12h.428c.07 0 .13.024.183.073a.234.234 0 0 1 .078.177c0 .069-.026.128-.078.177a.26.26 0 0 1-.183.074h-.428a1.015 1.015 0 0 0-.72.303 1.1 1.1 0 0 0-.217.323.955.955 0 0 0-.083.394v2.11a.24.24 0 0 1-.074.177.245.245 0 0 1-.18.073zm2.955 0a.26.26 0 0 1-.183-.073.234.234 0 0 1-.079-.178v-2.11c0-.207.041-.403.122-.587a1.564 1.564 0 0 1 .82-.813c.186-.08.384-.12.594-.12.261 0 .504.06.728.18.224.122.408.289.554.502a1.507 1.507 0 0 1 1.273-.683c.21 0 .407.04.593.121a1.58 1.58 0 0 1 .82.813c.082.184.122.38.122.588v2.11a.24.24 0 0 1-.074.177.26.26 0 0 1-.362 0 .234.234 0 0 1-.078-.178v-2.11a1 1 0 0 0-.624-.933 1.025 1.025 0 0 0-.397-.078c-.14 0-.272.026-.397.078a.96.96 0 0 0-.322.216 1.1 1.1 0 0 0-.218.324.955.955 0 0 0-.083.394v2.11a.24.24 0 0 1-.074.177.26.26 0 0 1-.362 0 .234.234 0 0 1-.079-.178v-2.11a1 1 0 0 0-.624-.933 1.025 1.025 0 0 0-.396-.078c-.14 0-.272.026-.397.078a.96.96 0 0 0-.323.216 1.1 1.1 0 0 0-.218.324.955.955 0 0 0-.083.394v2.11a.24.24 0 0 1-.074.177.245.245 0 0 1-.179.073zm6.305-.605c.07 0 .13.024.183.073a.234.234 0 0 1 .078.178v.095a.244.244 0 0 1-.078.186.26.26 0 0 1-.362 0 .25.25 0 0 1-.074-.186v-.095a.24.24 0 0 1 .074-.178.245.245 0 0 1 .179-.073zm4.708-3.285c.07 0 .13.024.179.073a.24.24 0 0 1 .074.177v1.695c0 .27-.05.523-.152.756A1.972 1.972 0 0 1 21.434 38a1.918 1.918 0 0 1-1.383-.57 2.009 2.009 0 0 1-.419-.619 1.872 1.872 0 0 1-.152-.756V34.36a.24.24 0 0 1 .074-.177.245.245 0 0 1 .179-.073c.07 0 .13.024.179.073a.24.24 0 0 1 .074.177v1.695a1.437 1.437 0 0 0 1.448 1.435 1.452 1.452 0 0 0 1.025-.42 1.437 1.437 0 0 0 .423-1.015V34.36c0-.069.026-.128.078-.177a.26.26 0 0 1 .183-.073zm3.81 3.657c-.14.074-.286.132-.44.172-.154.04-.313.061-.476.061-.273 0-.527-.05-.763-.151a1.991 1.991 0 0 1-1.046-1.038 1.872 1.872 0 0 1-.153-.756c0-.265.05-.516.153-.752a1.991 1.991 0 0 1 1.047-1.042c.235-.101.49-.151.762-.151.268 0 .52.05.76.15a1.978 1.978 0 0 1 1.05 1.043c.102.236.153.487.153.752v1.686c0 .069-.025.13-.074.181a.248.248 0 0 1-.188.078.238.238 0 0 1-.178-.078.255.255 0 0 1-.075-.181v-.38a1.88 1.88 0 0 1-.532.406zm-2.363-1.712a1.437 1.437 0 0 0 1.448 1.435 1.452 1.452 0 0 0 1.025-.42 1.437 1.437 0 0 0 .309-1.573 1.437 1.437 0 0 0-1.335-.877 1.452 1.452 0 0 0-1.025.42 1.437 1.437 0 0 0-.422 1.015z"/>
    </g>
</svg>
