<svg xmlns="http://www.w3.org/2000/svg" width="12" height="15" viewBox="0 0 12 15">
    <path fill="#707488" fill-rule="nonzero" d="M10.937 5.625H10v-1.25A4.38 4.38 0 0 0 5.625 0 4.38 4.38 0 0 0 1.25 4.375v1.25H.313A.312.312 0 0 0 0 5.938v7.812C0 14.44.56 15 1.25 15H10c.69 0 1.25-.56 1.25-1.25V5.938a.312.312 0 0 0-.313-.313zm-4.376 6.528a.313.313 0 0 1-.311.347H5a.313.313 0 0 1-.31-.347l.196-1.773a1.236 1.236 0 0 1-.511-1.005 1.251 1.251 0 0 1 2.5 0c0 .404-.191.772-.511 1.005l.197 1.773zm1.564-6.528h-5v-1.25c0-1.378 1.122-2.5 2.5-2.5s2.5 1.122 2.5 2.5v1.25z"/>
</svg>
