<svg xmlns="http://www.w3.org/2000/svg" width="19" height="19" viewBox="0 0 19 19">
    <g fill="none" fill-rule="evenodd">
        <path fill="#0096D2" fill-rule="nonzero" d="M9.5 0C14.725 0 19 4.275 19 9.5S14.725 19 9.5 19 0 14.725 0 9.5 4.275 0 9.5 0zm3.886 5.385C12.384 4.462 11.139 4 9.65 4c-1.564 0-2.897.524-3.997 1.575-1.1 1.05-1.65 2.357-1.65 3.92 0 1.5.524 2.787 1.57 3.867 1.05 1.08 2.462 1.62 4.239 1.62 1.07 0 2.121-.22 3.152-.66a.672.672 0 0 0 .363-.868.67.67 0 0 0-.888-.363c-.896.386-1.774.578-2.63.578-1.362 0-2.417-.414-3.165-1.245a4.229 4.229 0 0 1-1.12-2.922c0-1.214.4-2.227 1.2-3.04.798-.81 1.781-1.219 2.946-1.219 1.074 0 1.98.334 2.72 1.002.74.667 1.11 1.508 1.11 2.52 0 .692-.171 1.27-.51 1.73-.338.461-.69.69-1.055.69-.197 0-.295-.106-.295-.318 0-.173.013-.375.038-.608l.416-3.407h-1.433l-.092.334c-.365-.298-.766-.448-1.201-.448-.69 0-1.282.275-1.772.824-.493.549-.737 1.257-.737 2.122 0 .844.217 1.528.654 2.045.437.52.961.778 1.575.778.549 0 1.017-.231 1.407-.69.293.44.726.66 1.297.66.84 0 1.566-.365 2.178-1.097.611-.73.918-1.613.918-2.646 0-1.309-.5-2.426-1.503-3.35zm-3.302 5.155c-.254.34-.556.513-.908.513-.24 0-.432-.126-.578-.377-.148-.25-.222-.562-.222-.936 0-.462.104-.834.31-1.116.206-.282.461-.426.766-.426.264 0 .5.106.706.318.206.213.309.496.309.85-.003.44-.13.83-.383 1.174z"/>
    </g>
</svg>
