<svg xmlns="http://www.w3.org/2000/svg" width="19" height="19" viewBox="0 0 19 19">
    <path fill="#FC4445" fill-rule="nonzero" d="M9.5 0C14.725 0 19 4.275 19 9.5S14.725 19 9.5 19 0 14.725 0 9.5 4.275 0 9.5 0zm5.276 12.91l-1.545-1.548c-.307-.308-.817-.298-1.135.02l-.778.78-.153-.085c-.492-.273-1.164-.647-1.872-1.357-.71-.71-1.083-1.386-1.356-1.879l-.084-.15.522-.523.257-.257c.319-.32.328-.83.02-1.138L7.109 5.225c-.306-.308-.816-.299-1.135.021l-.435.439.012.012a2.524 2.524 0 0 0-.359.634 2.634 2.634 0 0 0-.16.643c-.203 1.694.57 3.243 2.666 5.344 2.898 2.904 5.233 2.685 5.334 2.674a2.605 2.605 0 0 0 1.274-.52l.01.009.44-.433c.318-.32.328-.83.02-1.138z"/>
</svg>
