<svg width="114" height="88" viewBox="0 0 114 88" fill="none" xmlns="http://www.w3.org/2000/svg">
<g clip-path="url(#clip0)">
<path d="M64.149 47.46C61.9389 47.4688 59.793 46.7167 58.072 45.33V39.448H61.181C61.3436 39.4415 61.4974 39.3724 61.6102 39.255C61.7229 39.1377 61.7859 38.9812 61.7859 38.8185C61.7859 38.6557 61.7229 38.4993 61.6102 38.382C61.4974 38.2646 61.3436 38.1955 61.181 38.189H58.072V35.7C58.0605 35.0361 58.3126 34.3946 58.7732 33.9163C59.2337 33.4379 59.8651 33.1617 60.529 33.148C61.1927 33.1619 61.8239 33.4383 62.2842 33.9166C62.7445 34.395 62.9965 35.0362 62.985 35.7V39.35C62.9633 40.5933 63.4352 41.7946 64.2974 42.6907C65.1596 43.5868 66.3417 44.1047 67.585 44.131C68.8283 44.1047 70.0104 43.5868 70.8726 42.6907C71.7348 41.7946 72.2067 40.5933 72.185 39.35V32.25C73.1811 33.712 73.7598 35.418 73.8588 37.1843C73.9578 38.9506 73.5735 40.7106 72.747 42.2748C71.9206 43.839 70.6834 45.1483 69.1684 46.0619C67.6535 46.9756 65.9181 47.4589 64.149 47.46V47.46ZM56.86 44.176C55.199 42.285 54.3355 39.8239 54.4507 37.3097C54.5658 34.7954 55.6508 32.4236 57.4777 30.6924C59.3046 28.9611 61.7312 28.0052 64.248 28.0252C66.7648 28.0453 69.1759 29.0398 70.975 30.8V39.35C70.9913 40.2661 70.6438 41.1513 70.0085 41.8115C69.3732 42.4717 68.502 42.8531 67.586 42.872C66.67 42.8531 65.7988 42.4717 65.1635 41.8115C64.5282 41.1513 64.1807 40.2661 64.197 39.35V35.7C64.2144 34.7086 63.8381 33.7507 63.1506 33.0361C62.4631 32.3216 61.5204 31.9087 60.529 31.888C59.5375 31.9085 58.5945 32.3212 57.9067 33.0358C57.219 33.7503 56.8426 34.7084 56.86 35.7V38.188H56.229C56.0664 38.1945 55.9126 38.2636 55.7998 38.381C55.6871 38.4983 55.6241 38.6547 55.6241 38.8175C55.6241 38.9802 55.6871 39.1367 55.7998 39.254C55.9126 39.3714 56.0664 39.4405 56.229 39.447H56.861V44.175L56.86 44.176Z" fill="#207DB5"/>
<path d="M71.122 52C71.1013 52 71.0809 51.9955 71.062 51.9869C71.0432 51.9783 71.0265 51.9657 71.013 51.95C70.9829 51.9182 70.9664 51.8758 70.967 51.832V51.585C70.8068 51.7648 70.5986 51.8952 70.367 51.961C70.2708 51.987 70.1716 52.0001 70.072 52C69.909 52.0007 69.7477 51.9667 69.599 51.9C69.4537 51.8351 69.3223 51.7427 69.212 51.628C69.1005 51.5121 69.0117 51.3765 68.95 51.228C68.824 50.9138 68.824 50.5632 68.95 50.249C69.0115 50.1005 69.1004 49.9648 69.212 49.849C69.3224 49.7344 69.4538 49.6421 69.599 49.577C69.7479 49.5121 69.9086 49.4787 70.071 49.4787C70.2334 49.4787 70.3941 49.5121 70.543 49.577C70.6894 49.6416 70.8218 49.7339 70.933 49.849C71.1631 50.0888 71.2911 50.4086 71.29 50.741V51.832C71.2904 51.8758 71.274 51.9181 71.244 51.95C71.2288 51.9671 71.2099 51.9805 71.1888 51.9891C71.1676 51.9978 71.1448 52.0015 71.122 52V52ZM70.066 49.808C69.9458 49.8076 69.8269 49.8325 69.717 49.881C69.6092 49.9283 69.5117 49.9962 69.43 50.081C69.2609 50.2586 69.167 50.4948 69.168 50.74C69.167 50.9853 69.2609 51.2214 69.43 51.399C69.5118 51.4837 69.6093 51.5516 69.717 51.599C69.8273 51.6474 69.9465 51.6723 70.067 51.6723C70.1875 51.6723 70.3067 51.6474 70.417 51.599C70.5248 51.5516 70.6222 51.4837 70.704 51.399C70.8307 51.2652 70.9162 51.0978 70.9502 50.9168C70.9843 50.7357 70.9655 50.5486 70.896 50.378C70.8518 50.2666 70.7866 50.1648 70.704 50.078C70.6223 49.9932 70.5248 49.9253 70.417 49.878C70.3062 49.8303 70.1866 49.8064 70.066 49.808V49.808ZM67.213 52C67.0497 52.0007 66.8881 51.9666 66.739 51.9C66.5943 51.8356 66.4638 51.7431 66.355 51.628C66.2447 51.5116 66.1566 51.376 66.095 51.228C66.0314 51.0722 65.9995 50.9053 66.001 50.737V49.637C66.0006 49.6157 66.0045 49.5946 66.0124 49.5749C66.0203 49.5551 66.0321 49.5372 66.047 49.522C66.0612 49.5068 66.0784 49.4947 66.0975 49.4864C66.1166 49.4781 66.1372 49.4738 66.158 49.4738C66.1788 49.4738 66.1994 49.4781 66.2185 49.4864C66.2376 49.4947 66.2548 49.5068 66.269 49.522C66.2839 49.5372 66.2957 49.5551 66.3036 49.5749C66.3115 49.5946 66.3154 49.6157 66.315 49.637V50.737C66.3147 50.8612 66.3389 50.9841 66.386 51.099C66.4302 51.2104 66.4954 51.3122 66.578 51.399C66.6597 51.4838 66.7572 51.5517 66.865 51.599C66.9753 51.6474 67.0945 51.6723 67.215 51.6723C67.3355 51.6723 67.4547 51.6474 67.565 51.599C67.6728 51.5516 67.7702 51.4837 67.852 51.399C68.0211 51.2214 68.115 50.9853 68.114 50.74V49.64C68.1137 49.6185 68.1179 49.5971 68.1263 49.5773C68.1347 49.5575 68.1472 49.5397 68.163 49.525C68.1778 49.5097 68.1955 49.4976 68.2151 49.4894C68.2347 49.4811 68.2557 49.4769 68.277 49.477C68.2978 49.4769 68.3184 49.4811 68.3376 49.4893C68.3567 49.4976 68.3738 49.5097 68.388 49.525C68.4029 49.5402 68.4147 49.5581 68.4226 49.5779C68.4305 49.5976 68.4344 49.6187 68.434 49.64V50.74C68.4355 50.9083 68.4036 51.0752 68.34 51.231C68.2782 51.3794 68.1893 51.515 68.078 51.631C67.967 51.7462 67.8345 51.8386 67.688 51.903C67.5383 51.9687 67.3764 52.0017 67.213 52ZM65.352 52C65.3312 52.0001 65.3106 51.9959 65.2915 51.9876C65.2724 51.9793 65.2552 51.9672 65.241 51.952C65.2103 51.9193 65.1938 51.8758 65.195 51.831V51.77C65.1946 51.7487 65.1985 51.7276 65.2064 51.7079C65.2143 51.6881 65.2261 51.6702 65.241 51.655C65.2549 51.6403 65.2716 51.6285 65.2902 51.6205C65.3088 51.6124 65.3288 51.6081 65.349 51.608C65.3703 51.6079 65.3913 51.6121 65.4109 51.6204C65.4305 51.6286 65.4482 51.6407 65.463 51.656C65.4788 51.6707 65.4913 51.6885 65.4997 51.7083C65.5081 51.7281 65.5123 51.7495 65.512 51.771V51.832C65.5126 51.8545 65.5086 51.8768 65.5001 51.8976C65.4917 51.9184 65.4791 51.9373 65.463 51.953C65.4481 51.968 65.4303 51.9799 65.4107 51.9879C65.3911 51.996 65.3702 52.0001 65.349 52H65.352ZM64.612 52C64.5907 52.0001 64.5697 51.9959 64.5501 51.9876C64.5305 51.9794 64.5128 51.9673 64.498 51.952C64.4822 51.9373 64.4697 51.9195 64.4613 51.8997C64.4529 51.8799 64.4487 51.8585 64.449 51.837V50.469C64.4492 50.3816 64.4326 50.2951 64.4 50.214C64.3691 50.1359 64.3232 50.0646 64.265 50.004C64.1767 49.9117 64.0622 49.8488 63.937 49.8238C63.8118 49.7988 63.682 49.8128 63.565 49.864C63.4893 49.8962 63.4212 49.9439 63.365 50.004C63.3081 50.0656 63.2624 50.1367 63.23 50.214C63.196 50.2947 63.1786 50.3814 63.179 50.469V51.838C63.1795 51.8809 63.163 51.9223 63.133 51.953C63.1188 51.9682 63.1016 51.9803 63.0825 51.9886C63.0634 51.9969 63.0428 52.0011 63.022 52.001C62.9808 51.9998 62.9417 51.9826 62.913 51.953C62.8972 51.9383 62.8847 51.9205 62.8763 51.9007C62.8679 51.8809 62.8637 51.8595 62.864 51.838V50.469C62.8636 50.3815 62.8463 50.2949 62.813 50.214C62.7818 50.136 62.736 50.0647 62.678 50.004C62.5897 49.9117 62.4752 49.8488 62.35 49.8238C62.2248 49.7988 62.095 49.8128 61.978 49.864C61.9023 49.8962 61.8342 49.9439 61.778 50.004C61.7211 50.0656 61.6754 50.1367 61.643 50.214C61.609 50.2947 61.5916 50.3814 61.592 50.469V51.838C61.5925 51.8809 61.576 51.9223 61.546 51.953C61.5318 51.9682 61.5146 51.9803 61.4955 51.9886C61.4764 51.9969 61.4558 52.0011 61.435 52.001C61.4138 52.001 61.3927 51.9967 61.3732 51.9885C61.3536 51.9802 61.3359 51.9682 61.321 51.953C61.3054 51.9382 61.2931 51.9203 61.2846 51.9006C61.2762 51.8808 61.2719 51.8595 61.272 51.838V50.469C61.2717 50.3382 61.2975 50.2087 61.348 50.088C61.3968 49.9716 61.4667 49.8652 61.554 49.774C61.6395 49.6845 61.7413 49.6122 61.854 49.561C61.9696 49.5086 62.0951 49.4816 62.222 49.482C62.3804 49.4813 62.5362 49.522 62.674 49.6C62.8134 49.6788 62.9314 49.7903 63.018 49.925C63.1016 49.79 63.2178 49.6782 63.356 49.6C63.4953 49.5212 63.6529 49.4805 63.813 49.482C63.9399 49.4816 64.0654 49.5086 64.181 49.561C64.2936 49.6124 64.3954 49.6847 64.481 49.774C64.5683 49.8652 64.6382 49.9716 64.687 50.088C64.7375 50.2087 64.7633 50.3382 64.763 50.469V51.838C64.7634 51.8593 64.7595 51.8804 64.7516 51.9001C64.7437 51.9199 64.7319 51.9379 64.717 51.953C64.7036 51.9673 64.6875 51.9788 64.6697 51.9869C64.6518 51.9949 64.6326 51.9994 64.613 52H64.612ZM59.606 52C59.5849 52 59.564 51.9958 59.5446 51.9875C59.5252 51.9793 59.5076 51.9672 59.493 51.952C59.4772 51.9373 59.4647 51.9195 59.4563 51.8997C59.4479 51.8799 59.4437 51.8585 59.444 51.837V50.469C59.4412 50.3387 59.4647 50.2091 59.513 50.088C59.5613 49.9715 59.6308 49.8651 59.718 49.774C59.8037 49.6847 59.9054 49.6124 60.018 49.561C60.1336 49.5085 60.2591 49.4816 60.386 49.482H60.651C60.6723 49.4819 60.6933 49.4861 60.7129 49.4944C60.7325 49.5026 60.7502 49.5147 60.765 49.53C60.7804 49.5449 60.7927 49.5628 60.8011 49.5825C60.8094 49.6023 60.8138 49.6235 60.8138 49.645C60.8138 49.6665 60.8094 49.6877 60.8011 49.7075C60.7927 49.7272 60.7804 49.7451 60.765 49.76C60.7502 49.7753 60.7325 49.7874 60.7129 49.7956C60.6933 49.8039 60.6723 49.8081 60.651 49.808H60.394C60.309 49.8076 60.225 49.8261 60.148 49.862C60.0725 49.8959 60.0045 49.9445 59.948 50.005C59.891 50.0665 59.8452 50.1376 59.813 50.215C59.779 50.2957 59.7616 50.3824 59.762 50.47V51.838C59.7624 51.8593 59.7585 51.8804 59.7506 51.9001C59.7427 51.9199 59.7309 51.9379 59.716 51.953C59.7016 51.9684 59.684 51.9805 59.6645 51.9886C59.6451 51.9967 59.6241 52.0006 59.603 52H59.606ZM58.742 52C58.7212 52.0002 58.7005 51.996 58.6814 51.9878C58.6623 51.9795 58.6451 51.9673 58.631 51.952C58.6157 51.9359 58.6038 51.9169 58.5959 51.8961C58.588 51.8753 58.5843 51.8532 58.585 51.831V49.645C58.5843 49.6229 58.5879 49.601 58.5958 49.5803C58.6037 49.5597 58.6157 49.5409 58.631 49.525C58.6451 49.5096 58.6622 49.4974 58.6814 49.4891C58.7005 49.4809 58.7212 49.4767 58.742 49.477C58.7631 49.4769 58.784 49.4812 58.8034 49.4894C58.8228 49.4977 58.8404 49.5098 58.855 49.525C58.871 49.5405 58.8837 49.5592 58.8921 49.5799C58.9005 49.6005 58.9046 49.6227 58.904 49.645V51.832C58.9046 51.8545 58.9006 51.8768 58.8921 51.8976C58.8837 51.9184 58.8711 51.9373 58.855 51.953C58.8399 51.9684 58.8218 51.9805 58.8019 51.9886C58.7819 51.9966 58.7605 52.0005 58.739 52H58.742ZM57.179 52C57.1578 52 57.1367 51.9957 57.1172 51.9875C57.0976 51.9792 57.0799 51.9672 57.065 51.952C57.0488 51.9377 57.0358 51.9202 57.0269 51.9005C57.0179 51.8809 57.0132 51.8596 57.013 51.838V49.37C57.0136 49.225 57.0337 49.0806 57.073 48.941C57.1099 48.8036 57.1665 48.6722 57.241 48.551C57.3139 48.4234 57.4169 48.3156 57.541 48.237C57.6669 48.1539 57.8142 48.109 57.965 48.108C57.9868 48.1074 58.0084 48.1113 58.0286 48.1196C58.0487 48.1279 58.0669 48.1403 58.082 48.156C58.0973 48.1721 58.1092 48.1911 58.1171 48.2119C58.125 48.2327 58.1287 48.2548 58.128 48.277C58.1285 48.2983 58.1246 48.3194 58.1167 48.3392C58.1088 48.359 58.097 48.3769 58.082 48.392C58.0668 48.4075 58.0486 48.4198 58.0285 48.4278C58.0083 48.4359 57.9867 48.4397 57.965 48.439C57.856 48.4332 57.7488 48.469 57.665 48.539C57.5952 48.6004 57.5357 48.6726 57.489 48.753C57.4366 48.8443 57.3975 48.9426 57.373 49.045C57.3461 49.1513 57.3323 49.2604 57.332 49.37V49.477H57.965C57.987 49.4764 58.0089 49.4807 58.0292 49.4895C58.0494 49.4983 58.0674 49.5115 58.082 49.528C58.112 49.5599 58.1285 49.6022 58.128 49.646C58.1285 49.6673 58.1246 49.6884 58.1167 49.7082C58.1088 49.728 58.097 49.7459 58.082 49.761C58.0669 49.7766 58.0487 49.7889 58.0285 49.797C58.0084 49.8051 57.9867 49.8089 57.965 49.808H57.332V51.838C57.3325 51.8809 57.316 51.9223 57.286 51.953C57.2717 51.968 57.2545 51.98 57.2354 51.9881C57.2163 51.9961 57.1957 52.0002 57.175 52H57.179ZM58.739 49.257C58.7181 49.2571 58.6974 49.2528 58.6782 49.2444C58.6591 49.236 58.642 49.2235 58.628 49.208C58.6132 49.1932 58.6016 49.1755 58.5937 49.1561C58.5858 49.1367 58.5818 49.1159 58.582 49.095V49.033C58.5817 48.9895 58.5982 48.9476 58.628 48.916C58.6417 48.9001 58.6588 48.8873 58.678 48.8787C58.6971 48.8701 58.718 48.8657 58.739 48.866C58.7603 48.866 58.7813 48.8704 58.8008 48.879C58.8203 48.8876 58.8377 48.9002 58.852 48.916C58.8676 48.9314 58.88 48.9498 58.8884 48.9701C58.8968 48.9903 58.9011 49.0121 58.901 49.034V49.095C58.9002 49.1377 58.8829 49.1785 58.8527 49.2087C58.8225 49.2389 58.7817 49.2562 58.739 49.257Z" fill="#207DB5"/>
<path d="M48.892 51.612C48.7473 51.6164 48.6033 51.5906 48.4692 51.5362C48.335 51.4818 48.2137 51.4 48.113 51.296C48.0147 51.1941 47.9376 51.0738 47.8861 50.942C47.8346 50.8102 47.8098 50.6695 47.813 50.528V44.528C47.8704 43.7389 47.6508 42.9546 47.192 42.31C46.9575 42.0544 46.6681 41.8551 46.3457 41.7271C46.0232 41.5991 45.676 41.5458 45.33 41.571C44.7745 41.5638 44.2266 41.6999 43.739 41.966C43.2798 42.2162 42.8974 42.5868 42.633 43.038C42.3704 43.4904 42.234 44.0049 42.238 44.528V50.528C42.2412 50.6695 42.2164 50.8102 42.1649 50.942C42.1134 51.0738 42.0363 51.1941 41.938 51.296C41.8375 51.3999 41.7164 51.4818 41.5824 51.5362C41.4484 51.5906 41.3045 51.6164 41.16 51.612C41.0182 51.6181 40.8766 51.5946 40.7444 51.543C40.6121 51.4913 40.4921 51.4126 40.392 51.312C40.2942 51.2079 40.2179 51.0855 40.1676 50.9518C40.1173 50.8181 40.094 50.6757 40.099 50.533V44.501C40.1352 43.7487 39.9378 43.0037 39.534 42.368C39.3128 42.0893 39.0256 41.8702 38.6984 41.7305C38.3712 41.5908 38.0143 41.535 37.66 41.568C37.2553 41.5554 36.8523 41.6238 36.4744 41.7692C36.0966 41.9147 35.7517 42.1343 35.46 42.415C35.1784 42.6838 34.9558 43.0083 34.8062 43.3677C34.6566 43.7271 34.5833 44.1137 34.591 44.503V50.53C34.5942 50.6715 34.5694 50.8122 34.5179 50.944C34.4664 51.0758 34.3893 51.1961 34.291 51.298C34.1905 51.4019 34.0694 51.4838 33.9354 51.5382C33.8014 51.5926 33.6575 51.6184 33.513 51.614C33.3712 51.6201 33.2296 51.5966 33.0974 51.545C32.9651 51.4933 32.8451 51.4146 32.745 51.314C32.6472 51.2099 32.5709 51.0875 32.5206 50.9538C32.4703 50.8201 32.447 50.6777 32.452 50.535V40.866C32.4489 40.7247 32.4738 40.5841 32.5253 40.4525C32.5767 40.3208 32.6538 40.2007 32.752 40.099C32.8491 39.9964 32.9667 39.9153 33.097 39.8608C33.2274 39.8064 33.3678 39.7799 33.509 39.783C33.6536 39.7784 33.7975 39.8042 33.9315 39.8586C34.0654 39.9131 34.1866 39.9949 34.287 40.099C34.3853 40.2006 34.4624 40.3207 34.5139 40.4524C34.5654 40.5841 34.5903 40.7247 34.587 40.866V41.652C34.9953 41.0499 35.5309 40.545 36.156 40.173C36.83 39.777 37.5983 39.5701 38.38 39.5739C39.1617 39.5778 39.9279 39.7923 40.598 40.195C41.2337 40.652 41.7 41.3068 41.924 42.057C42.3205 41.3612 42.8841 40.7752 43.564 40.352C44.2802 39.8562 45.129 39.5873 46 39.58C46.5555 39.541 47.1124 39.6318 47.6267 39.8453C48.141 40.0588 48.5985 40.3891 48.963 40.81C49.6967 41.8948 50.0447 43.1947 49.951 44.501V50.528C49.956 50.6708 49.9326 50.8132 49.8821 50.947C49.8316 51.0807 49.7551 51.2031 49.657 51.307C49.5577 51.4082 49.4383 51.4875 49.3066 51.54C49.1749 51.5926 49.0337 51.6171 48.892 51.612V51.612ZM24.055 51.612C23.9133 51.618 23.772 51.5944 23.6399 51.5428C23.5079 51.4911 23.388 51.4125 23.288 51.312C23.1902 51.2079 23.1139 51.0855 23.0636 50.9518C23.0133 50.8181 22.99 50.6757 22.995 50.533V40.866C22.9918 40.7247 23.0166 40.5841 23.0681 40.4524C23.1196 40.3207 23.1967 40.2006 23.295 40.099C23.392 39.9965 23.5094 39.9155 23.6396 39.8611C23.7698 39.8066 23.9099 39.78 24.051 39.783C24.1957 39.7785 24.3397 39.8043 24.4739 39.8587C24.608 39.9131 24.7293 39.995 24.83 40.099C24.9283 40.2006 25.0054 40.3207 25.0569 40.4524C25.1084 40.5841 25.1333 40.7247 25.13 40.866V42.017C25.4514 41.2925 25.9671 40.6712 26.62 40.222C27.2842 39.7637 28.071 39.5159 28.878 39.511C29.2398 39.5013 29.5954 39.6063 29.894 39.811C30.0231 39.8909 30.1301 40.0021 30.2051 40.1342C30.2801 40.2663 30.3206 40.4151 30.323 40.567C30.3332 40.7162 30.3136 40.8659 30.2651 41.0074C30.2167 41.1489 30.1405 41.2793 30.041 41.391C29.9513 41.4823 29.844 41.5544 29.7255 41.6029C29.6071 41.6513 29.48 41.6752 29.352 41.673C29.1435 41.6579 28.9383 41.6125 28.743 41.538C28.5039 41.4485 28.2528 41.3952 27.998 41.38C27.5025 41.3907 27.0238 41.5612 26.633 41.866C26.1686 42.2151 25.7965 42.6724 25.549 43.198C25.2659 43.7856 25.1229 44.4308 25.131 45.083V50.523C25.1342 50.6645 25.1094 50.8052 25.0579 50.937C25.0064 51.0688 24.9293 51.1891 24.831 51.291C24.7311 51.3955 24.6105 51.478 24.4768 51.5333C24.3432 51.5886 24.1996 51.6154 24.055 51.612ZM18.7 51.612C18.5589 51.6149 18.4188 51.5883 18.2886 51.5338C18.1584 51.4794 18.0411 51.3984 17.944 51.296C17.8457 51.1941 17.7686 51.0738 17.7171 50.942C17.6656 50.8102 17.6408 50.6695 17.644 50.528V40.752C17.6408 40.6105 17.6656 40.4698 17.7171 40.338C17.7686 40.2061 17.8457 40.0858 17.944 39.984C18.0411 39.8816 18.1584 39.8006 18.2886 39.7461C18.4188 39.6917 18.5589 39.6651 18.7 39.668C18.8447 39.6635 18.9887 39.6894 19.1229 39.7438C19.257 39.7982 19.3783 39.88 19.479 39.984C19.5773 40.0858 19.6544 40.2061 19.7059 40.338C19.7574 40.4698 19.7822 40.6105 19.779 40.752V50.526C19.7822 50.6675 19.7574 50.8082 19.7059 50.94C19.6544 51.0718 19.5773 51.1921 19.479 51.294C19.3785 51.3983 19.2572 51.4805 19.1231 51.5353C18.9889 51.59 18.8448 51.6162 18.7 51.612V51.612ZM11.477 51.612C11.3358 51.615 11.1955 51.5884 11.0651 51.534C10.9348 51.4795 10.8172 51.3985 10.72 51.296C10.6218 51.1941 10.5447 51.0738 10.4932 50.942C10.4417 50.8102 10.4168 50.6695 10.42 50.528V41.952H9.02C8.75298 41.9588 8.49375 41.8617 8.297 41.681C8.19984 41.5923 8.123 41.4836 8.07174 41.3625C8.02048 41.2413 7.99601 41.1105 8 40.979C7.99658 40.8466 8.02089 40.715 8.07134 40.5925C8.1218 40.4701 8.1973 40.3595 8.293 40.268C8.3889 40.1755 8.50218 40.103 8.62628 40.0546C8.75037 40.0062 8.88283 39.9829 9.016 39.986H10.416V38.406C10.3953 37.9383 10.4751 37.4715 10.6502 37.0373C10.8253 36.6031 11.0916 36.2115 11.431 35.889C12.233 35.2224 13.2592 34.8872 14.3 34.952C14.7665 34.943 15.229 35.0394 15.653 35.234C15.8251 35.2989 15.9734 35.4145 16.0782 35.5656C16.183 35.7167 16.2395 35.8961 16.24 36.08C16.2482 36.3416 16.155 36.5963 15.98 36.791C15.9027 36.8798 15.8073 36.9509 15.7002 36.9995C15.593 37.0482 15.4767 37.0732 15.359 37.073C15.1904 37.0548 15.0233 37.0243 14.859 36.982C14.5795 36.9017 14.2907 36.858 14 36.852C13.7948 36.8351 13.5885 36.8672 13.3982 36.9456C13.2078 37.024 13.0388 37.1465 12.905 37.303C12.6666 37.6214 12.5432 38.0113 12.555 38.409V39.989H14.795C14.9301 39.984 15.0647 40.0064 15.1909 40.0548C15.317 40.1033 15.4321 40.1768 15.529 40.271C15.6218 40.3642 15.6946 40.4753 15.7431 40.5975C15.7916 40.7197 15.8147 40.8505 15.811 40.982C15.8155 41.1119 15.7928 41.2413 15.7442 41.3619C15.6956 41.4824 15.6223 41.5915 15.529 41.682C15.4305 41.7731 15.3149 41.8439 15.1889 41.8902C15.063 41.9365 14.9291 41.9575 14.795 41.952H12.56V50.53C12.5632 50.6715 12.5384 50.8122 12.4869 50.944C12.4354 51.0758 12.3583 51.1961 12.26 51.298C12.1587 51.4022 12.0367 51.484 11.9018 51.5381C11.767 51.5922 11.6222 51.6174 11.477 51.612V51.612ZM18.7 38.18C18.3699 38.209 18.0396 38.1255 17.763 37.943C17.6628 37.8459 17.5854 37.7276 17.5367 37.5968C17.4879 37.466 17.4689 37.326 17.481 37.187V36.826C17.4662 36.6833 17.4857 36.5392 17.5379 36.4056C17.5901 36.272 17.6734 36.1528 17.781 36.058C18.0637 35.8863 18.3931 35.8072 18.723 35.832C19.0458 35.8047 19.3682 35.8883 19.637 36.069C19.7374 36.166 19.8148 36.2843 19.8635 36.4151C19.9123 36.5459 19.9313 36.6859 19.919 36.825V37.186C19.9333 37.3277 19.9142 37.4707 19.8634 37.6037C19.8125 37.7367 19.7312 37.856 19.626 37.952C19.3495 38.1247 19.0251 38.2046 18.7 38.18V38.18Z" fill="#207DB5"/>
<path d="M96.963 51.837C95.9771 51.8465 95.0093 51.5723 94.175 51.047C93.3304 50.5083 92.6508 49.747 92.211 48.847C91.7275 47.8604 91.4839 46.7736 91.5 45.675C91.4842 44.5763 91.7281 43.4895 92.212 42.503C92.65 41.6049 93.3253 40.8437 94.165 40.302C94.9799 39.7804 95.9285 39.506 96.896 39.512C97.6653 39.5077 98.4256 39.6787 99.119 40.012C99.7532 40.3042 100.313 40.7364 100.756 41.276V40.731C100.747 40.4396 100.853 40.1563 101.049 39.941C101.147 39.8364 101.266 39.754 101.399 39.6995C101.531 39.645 101.674 39.6196 101.817 39.625C101.96 39.6196 102.103 39.6434 102.237 39.695C102.371 39.7466 102.493 39.8248 102.596 39.925C102.697 40.0313 102.776 40.1569 102.828 40.2944C102.879 40.4318 102.902 40.5783 102.896 40.725V50.525C102.899 50.6665 102.874 50.8072 102.823 50.939C102.771 51.0708 102.694 51.1911 102.596 51.293C102.495 51.397 102.374 51.4788 102.24 51.5332C102.106 51.5876 101.962 51.6134 101.817 51.609C101.675 51.6151 101.534 51.5916 101.401 51.54C101.269 51.4883 101.149 51.4096 101.049 51.309C100.951 51.2049 100.875 51.0825 100.825 50.9488C100.774 50.8151 100.751 50.6728 100.756 50.53V49.943C100.326 50.5014 99.7804 50.9597 99.156 51.286C98.4834 51.6523 97.7288 51.8419 96.963 51.837V51.837ZM97.212 41.498C96.5438 41.4878 95.8877 41.6764 95.327 42.04C94.7709 42.4106 94.3263 42.9257 94.041 43.53C93.7247 44.2002 93.5664 44.934 93.578 45.675C93.5663 46.4157 93.7247 47.1491 94.041 47.819C94.3259 48.4244 94.7705 48.9406 95.327 49.312C95.8919 49.6661 96.5452 49.854 97.212 49.854C97.8788 49.854 98.5321 49.6661 99.097 49.312C99.6534 48.9414 100.098 48.4263 100.384 47.822C100.7 47.152 100.858 46.4186 100.846 45.678C100.856 44.9447 100.698 44.2187 100.384 43.556C100.096 42.9502 99.6521 42.4323 99.097 42.056C98.5395 41.6837 97.8823 41.4891 97.212 41.498V41.498ZM83.933 51.812C83.2707 51.852 82.6072 51.7574 81.9825 51.534C81.3577 51.3106 80.7847 50.9629 80.298 50.512C79.8519 50.0214 79.5083 49.4466 79.2875 48.8213C79.0667 48.196 78.973 47.533 79.012 46.871V40.871C79.0081 40.7288 79.0326 40.5873 79.0841 40.4547C79.1356 40.3222 79.2131 40.2012 79.312 40.099C79.4096 39.9959 79.5278 39.9145 79.6589 39.86C79.79 39.8056 79.9311 39.7793 80.073 39.783C80.2177 39.7785 80.3617 39.8043 80.4959 39.8587C80.63 39.9131 80.7513 39.995 80.852 40.099C80.9502 40.2007 81.0273 40.3208 81.0788 40.4525C81.1302 40.5841 81.1551 40.7247 81.152 40.866V46.866C81.092 47.6668 81.3402 48.4602 81.846 49.084C82.1227 49.3452 82.4509 49.5459 82.8096 49.6731C83.1682 49.8004 83.5495 49.8514 83.929 49.823C84.3114 49.8489 84.695 49.7961 85.0561 49.668C85.4173 49.5398 85.7484 49.339 86.029 49.078C86.5503 48.4638 86.8096 47.6695 86.751 46.866V40.866C86.7477 40.7247 86.7726 40.5841 86.8241 40.4524C86.8756 40.3208 86.9527 40.2006 87.051 40.099C87.1486 39.9959 87.2668 39.9145 87.3979 39.86C87.529 39.8056 87.6701 39.7793 87.812 39.783C87.9568 39.7786 88.1009 39.8046 88.235 39.8592C88.3692 39.9137 88.4904 39.9958 88.591 40.1C88.6893 40.2016 88.7664 40.3218 88.8179 40.4534C88.8694 40.5851 88.8942 40.7257 88.891 40.867V46.867C88.9316 47.53 88.8382 48.1944 88.6166 48.8207C88.395 49.4469 88.0496 50.0221 87.601 50.512C87.108 50.9636 86.5293 51.3115 85.8991 51.5348C85.269 51.7581 84.6003 51.8524 83.933 51.812V51.812Z" fill="#207DB5"/>
</g>
<defs>
<clipPath id="clip0">
<rect width="94.9" height="24.001" fill="white" transform="translate(8 28)"/>
</clipPath>
</defs>
</svg>
