<svg xmlns="http://www.w3.org/2000/svg" width="16" height="15" viewBox="0 0 16 15">
    <g fill="#99ABC3" fill-rule="nonzero">
        <path d="M7.577 7.949c1.867 0 3.38-1.772 3.38-3.958 0-3.03-1.513-3.957-3.38-3.957-1.868 0-3.381.926-3.381 3.957 0 2.186 1.513 3.958 3.38 3.958zM15.043 13.773l-1.706-3.842a.856.856 0 0 0-.386-.41l-2.647-1.379a.17.17 0 0 0-.181.015 4.194 4.194 0 0 1-2.546.866c-.917 0-1.797-.3-2.546-.866a.17.17 0 0 0-.182-.015L2.202 9.52a.856.856 0 0 0-.386.41L.111 13.774a.85.85 0 0 0 .064.811.85.85 0 0 0 .715.388h13.373a.85.85 0 0 0 .715-.388.85.85 0 0 0 .065-.81z"/>
    </g>
</svg>
